<?xml version="1.0" encoding="iso-8859-1"?>
<!-- Generator: Adobe Illustrator 19.0.0, SVG Export Plug-In . SVG Version: 6.00 Build 0)  -->
<svg version="1.1" id="Capa_1" xmlns="http://www.w3.org/2000/svg" xmlns:xlink="http://www.w3.org/1999/xlink" x="0px" y="0px"
	 viewBox="0 0 512 512" style="enable-background:new 0 0 512 512;" xml:space="preserve">
<g>
	<g>
		<path d="M330,165C330,74.019,255.981,0,165,0S0,74.019,0,165c0,41.702,7.756,83.163,15.256,123.258
			C22.505,327.009,30,367.08,30,406c0,58.448,47.103,106,105,106c57.897,0,105-47.552,105-106c0-7.449-0.777-15.521-2.134-22.146
			c-7.319-35.767,19.024-77.399,43.807-102.182C312.837,250.508,330,209.073,330,165z M208.476,389.869
			C209.43,394.533,210,400.563,210,406c0,41.906-33.645,76-75,76s-75-34.094-75-76c0-41.702-7.756-83.163-15.256-123.258
			C37.495,243.991,30,203.92,30,165C30,90.561,90.561,30,165,30s135,60.561,135,135c0,36.06-14.042,69.961-39.54,95.459
			C228.971,291.949,198.778,342.481,208.476,389.869z"/>
	</g>
</g>
<g>
	<g>
		<path d="M184.617,61.797C118.696,49.724,60,100.154,60,165c0,36.108,6.904,72.8,14.23,111.733
			c2.353,12.5,4.786,25.425,6.969,38.303C85.62,341.09,107.694,360,133.688,360c25.27,0,47.207-17.984,52.162-42.762
			c0.037-4.611,18.099-53.027-19.431-98.806c-18.918-23.076-46.381-36.854-75.991-38.304C90.149,175.038,90,169.997,90,165
			c0-45.217,40.761-82.566,89.213-73.694c58.862,10.78,81.342,84.185,38.823,126.74l21.223,21.204
			C298.306,180.151,267.992,77.066,184.617,61.797z M143.219,237.451c27.523,33.572,13.312,68.767,13.213,73.903
			C154.271,322.158,144.706,330,133.688,330c-11.311,0-20.946-8.404-22.91-19.981c-2.229-13.144-4.688-26.204-7.081-38.921
			c-3.926-20.864-7.73-41.081-10.329-60.659C112.812,212.542,130.654,222.125,143.219,237.451z"/>
	</g>
</g>
<g>
	<g>
		<rect x="361" y="240" width="151" height="30"/>
	</g>
</g>
<g>
	<g>
		
			<rect x="420.993" y="337.903" transform="matrix(0.4472 -0.8944 0.8944 0.4472 -121.2155 613.8315)" width="29.999" height="134.156"/>
	</g>
</g>
<g>
	<g>
		
			<rect x="368.938" y="89.998" transform="matrix(0.8944 -0.4472 0.4472 0.8944 -0.9248 206.077)" width="134.156" height="29.999"/>
	</g>
</g>
<g>
</g>
<g>
</g>
<g>
</g>
<g>
</g>
<g>
</g>
<g>
</g>
<g>
</g>
<g>
</g>
<g>
</g>
<g>
</g>
<g>
</g>
<g>
</g>
<g>
</g>
<g>
</g>
<g>
</g>
</svg>
